<svg xmlns:svg="http://www.w3.org/2000/svg" xmlns="http://www.w3.org/2000/svg" xmlns:xlink="http://www.w3.org/1999/xlink" width="50" height="50" viewBox="0 0 50 50">
  <defs>
    <clipPath id="clipPath">
      <rect y="0.5" x="0.5" height="49" width="49" />
    </clipPath>
  </defs>
  <g id="clipper" clip-path="url(#clipPath)" >
    <g id="pattern" transform="rotate(45,24.5,30)" clip-path="url(#clipPath)" >
      <g id="color1g">
        <rect y="45" x="1" height="2" width="48" id="color1h" style="opacity:0.5;fill:#FFFFFF;fill-opacity:1;stroke:none" />
        <use xlink:href="#color1h" y="-4" x="0" />
        <use xlink:href="#color1h" y="-8" x="0" />
        <use xlink:href="#color1h" y="-12" x="0" />
        <use xlink:href="#color1h" y="-16" x="0" />
        <use xlink:href="#color1h" y="-20" x="0" />
        <use xlink:href="#color1h" y="-24" x="0" />
        <use xlink:href="#color1h" y="-28" x="0" />
        <use xlink:href="#color1h" y="-32" x="0" />
        <use xlink:href="#color1h" y="-36" x="0" />
        <use xlink:href="#color1h" y="-40" x="0" />
        <use xlink:href="#color1h" y="-44" x="0" />
        <use x="0" y="-44" xlink:href="#color1h" width="50" height="50" id="color1v" transform="matrix(0,-1,1,0,2,50)" />
        <use xlink:href="#color1v" y="0" x="4" />
        <use xlink:href="#color1v" y="0" x="8" />
        <use xlink:href="#color1v" y="0" x="12" />
        <use xlink:href="#color1v" y="0" x="16" />
        <use xlink:href="#color1v" y="0" x="20" />
        <use xlink:href="#color1v" y="0" x="24" />
        <use xlink:href="#color1v" y="0" x="28" />
        <use xlink:href="#color1v" y="0" x="32" />
        <use xlink:href="#color1v" y="0" x="36" />
        <use xlink:href="#color1v" y="0" x="40" />
        <use xlink:href="#color1v" y="0" x="44" />
      </g>
      <g id="color2g">
        <rect y="47" x="1" height="2" width="48" id="color2h" style="opacity:0.5;fill:#000000;fill-opacity:1;stroke:none" />
        <use xlink:href="#color2h" y="-4" x="0" />
        <use xlink:href="#color2h" y="-8" x="0" />
        <use xlink:href="#color2h" y="-12" x="0" />
        <use xlink:href="#color2h" y="-16" x="0" />
        <use xlink:href="#color2h" y="-20" x="0" />
        <use xlink:href="#color2h" y="-24" x="0" />
        <use xlink:href="#color2h" y="-28" x="0" />
        <use xlink:href="#color2h" y="-32" x="0" />
        <use xlink:href="#color2h" y="-36" x="0" />
        <use xlink:href="#color2h" y="-40" x="0" />
        <use xlink:href="#color2h" y="-44" x="0" />
        <use x="0" y="-48" xlink:href="#color2h" width="50" height="50" id="color2v" transform="matrix(0,-1,1,0,2,50)" />
        <use xlink:href="#color2v" y="0" x="4" />
        <use xlink:href="#color2v" y="0" x="8" />
        <use xlink:href="#color2v" y="0" x="12" />
        <use xlink:href="#color2v" y="0" x="16" />
        <use xlink:href="#color2v" y="0" x="20" />
        <use xlink:href="#color2v" y="0" x="24" />
        <use xlink:href="#color2v" y="0" x="28" />
        <use xlink:href="#color2v" y="0" x="32" />
        <use xlink:href="#color2v" y="0" x="36" />
        <use xlink:href="#color2v" y="0" x="40" />
        <use xlink:href="#color2v" y="0" x="44" />
      </g>
    </g>
  </g>
  <path
     style="fill:#ffffff;fill-opacity:1;stroke:none"
     d="M 0,0 0,50 50,50 50,0 0,0 z M 36.3125,1 C 36.3125,1.028 35.89375,1.42375 35.59375,1.59375 34.89375,2.13375 34.4,2.32625 33.5,2.40625 33.3,2.43625 33.1,2.45875 33,2.46875 33.041925,2.4863 33.175,2.5365 33.5,2.5625 35.1,2.6925 36.69375,3.1425 38.09375,3.8125 38.89375,4.1825 39.6125,4.7525 40.3125,5.5625 40.9125,6.1325 41.3125,6.79875 41.8125,7.46875 42.2125,8.09875 42.60625,9.14625 42.90625,9.90625 43.40625,11.58625 43.5875,13.3125 43.6875,16.8125 43.6875,17.4125 43.8125,17.99375 43.8125,18.59375 43.9125,20.29375 44.0125,20.9 44.8125,23 45.0125,23.6 44.9875,23.7 45.1875,24 45.3875,24.4 45.6125,24.70625 45.8125,24.90625 45.9125,25.00625 45.90625,25.09375 45.90625,25.09375 45.90625,25.19375 45.39375,24.7125 45.09375,24.3125 44.89375,24.0125 44.39375,23.0875 44.09375,22.6875 43.89375,22.0875 43.4125,20.50625 43.3125,19.90625 43.2125,19.40625 43.1,17.9875 43,17.1875 42.9,15.4875 42.7,14.1 42.5,13 42.1,11.6 41.6125,10.305 40.8125,9.125 40.4125,8.515 39.7125,7.55375 39.3125,7.09375 38.6125,6.30375 37.8,5.61 37,5 36,4.27 34.8,3.8525 33.5,3.5625 32.2,3.3025 31.49375,3.23 30.09375,3.25 28.39375,3.27 27.00625,3.49625 25.90625,3.90625 25.20625,4.18625 24.8125,4.37875 24.3125,4.71875 23.9125,5.00875 23.3125,5.49125 23.3125,5.53125 23.4125,5.54125 23.39375,5.47625 23.59375,5.40625 25.99375,3.84625 27.8875,3.39625 30.6875,3.40625 31.3875,3.42625 32.4125,3.5025 32.8125,3.5625 34.5125,3.7525 35.9125,4.4175 37.3125,5.4375 37.6125,5.7175 38.5125,6.5775 38.8125,6.9375 39.8125,8.0675 40.70625,9.39 41.40625,10.75 42.00625,11.81 42.3,12.89375 42.5,14.09375 42.6,14.79375 42.59375,15.00625 42.59375,15.40625 42.59375,15.80625 42.6,15.8125 42.5,15.3125 42.3,14.8125 42.1,14.3125 42,13.8125 41.7,13.1125 41.3,12.09375 41,11.59375 40.3,10.18375 39.2875,8.95375 38.1875,7.84375 38.0875,7.67375 37.7,7.41 37.5,7.25 36.6,6.57 35.6875,5.98 34.6875,5.5 33.5875,5.03 32.5125,4.81625 31.3125,4.65625 29.7125,4.54625 28.19375,4.68 26.59375,5 25.69375,5.22 24.70625,5.585 23.90625,6.125 23.50625,6.395 23.4,6.50875 23.5,6.46875 23.5,6.45875 23.7,6.3275 24,6.1875 24.9,5.5775 26,5.30375 27,5.09375 28.1,4.93375 29.30625,4.9 30.40625,5 33.40625,5.18 34.7875,5.685 37.1875,7.375 38.1875,8.125 38.9875,9.05125 39.6875,10.03125 39.9875,10.51125 40.3875,11.19375 41.1875,12.59375 41.4875,13.09375 41.8,13.9125 42,14.3125 42.2,15.0125 42.59375,16.2 42.59375,16.5 42.79375,17.6 42.8,18.7125 43,19.8125 43,20.0125 43.0875,20.50625 43.1875,20.90625 43.1875,21.40625 43.30625,21.8875 43.40625,22.1875 43.50625,22.9875 43.7125,24.09375 43.8125,24.59375 44.0125,25.69375 44.19375,26.59375 44.59375,28.09375 44.79375,29.09375 45.0875,30 45.1875,30.5 45.2875,31.5 45.40625,31.60625 45.40625,32.40625 L 45.40625,33.09375 C 45.30625,33.09375 45.2875,33.0125 45.1875,32.8125 45.0875,32.2125 44.7875,31.3 44.6875,31 44.3875,30.3 44.19375,29.9 44.09375,29.5 43.69375,28.4 43.29375,27.19375 43.09375,26.09375 42.79375,24.99375 42.70625,24.20625 42.40625,22.40625 42.10625,20.00625 41.89375,18.8875 41.59375,17.6875 41.09375,15.6875 40.6,14.4125 40,13.3125 39.4,12.3125 38.79375,11.30625 38.09375,10.40625 37.39375,9.50625 35.9875,8.25125 35.1875,7.78125 34.4875,7.39125 33.79375,7.10125 32.59375,6.78125 31.59375,6.53125 30.59375,6.3225 29.59375,6.3125 28.19375,6.3125 27.1125,6.4625 25.8125,6.8125 25.1125,6.9925 24.1875,7.3475 24.1875,7.4375 24.0875,7.4775 24.19375,7.47375 24.59375,7.34375 26.39375,6.71375 28.2875,6.3525 30.1875,6.5625 32.1875,6.8925 34.20625,7.64875 35.90625,8.71875 36.80625,9.33875 37.6125,10.08875 38.3125,10.96875 38.9125,11.90875 39.50625,12.8125 39.90625,13.8125 40.60625,15.4125 41.10625,17.10625 41.40625,18.90625 41.60625,20.10625 41.8,21.20625 42,22.40625 42.2,23.60625 42.3,24.29375 42.5,25.09375 42.7,26.39375 43.1,27.6125 43.5,28.8125 43.8,29.7125 43.9125,30.10625 44.3125,30.90625 44.6125,31.50625 44.8,32.09375 45,32.59375 45.3,33.29375 45.5,33.9875 45.5,34.6875 45.4,35.6875 45.3,36.50625 45,37.90625 L 44.40625,39.6875 C 44.30625,40.0875 44.09375,40.40625 44.09375,40.40625 43.99375,40.40625 44.0875,40.4125 44.1875,39.8125 44.3875,38.9125 44.49375,38.20625 44.59375,37.40625 44.69375,36.90625 44.6875,35.89375 44.6875,35.59375 44.5875,35.29375 44.4125,33.9875 44.3125,33.6875 44.2125,33.2875 43.90625,32.4125 43.40625,31.3125 42.90625,30.2125 42.39375,29.0125 42.09375,27.8125 42.09375,27.4125 41.9125,26.39375 41.8125,25.59375 41.7125,25.19375 41.6,24.59375 41.5,24.09375 41.3,22.89375 41.3,22.80625 41,20.90625 40.5,18.20625 40.1875,16.6 39.6875,15 39.2875,13.6 38.69375,12.5125 37.59375,11.3125 37.09375,10.7325 36.6125,10.26125 35.8125,9.78125 35.5125,9.53125 34.50625,9.0425 33.90625,8.8125 33.00625,8.4825 31.40625,8.1 30.40625,8 29.80625,7.94 27.9,7.94 27.5,8 26.8,8.08 25.4125,8.3575 25.3125,8.4375 25.3125,8.4775 25.4,8.4775 25.5,8.4375 25.5,8.4175 25.5875,8.385 25.6875,8.375 25.7875,8.365 25.9875,8.3425 26.1875,8.3125 28.0875,8.0025 29.2,7.96625 30.5,8.15625 31.8,8.39625 33.20625,8.63625 34.40625,9.15625 35.30625,9.57625 35.9,9.98 36.5,10.5 37,10.94 37.2875,11.2125 37.6875,11.8125 37.9875,12.2125 38.1125,12.50625 38.3125,12.90625 38.7125,13.60625 38.7875,13.90625 39.1875,14.90625 39.1875,15.10625 39.30625,15.39375 39.40625,15.59375 39.60625,15.99375 39.80625,16.8875 39.90625,17.1875 40.00625,17.7875 40.2125,18.70625 40.3125,19.40625 40.3125,19.70625 40.40625,20.20625 40.40625,20.40625 40.50625,21.10625 40.7125,22.70625 40.8125,22.90625 41.0125,23.90625 41.39375,24.9 41.59375,26 41.59375,26.2 41.8125,26.69375 41.8125,27.09375 42.0125,27.89375 42.09375,28.2125 42.09375,28.3125 L 42,28.1875 C 42,28.0875 41.79375,27.7125 41.59375,27.3125 40.99375,26.1125 40.5,24.8 40,23.5 39.8,22.9 39.5125,21.70625 39.3125,20.90625 39.1125,20.10625 39.09375,20.00625 39.09375,18.90625 L 39.09375,17.6875 C 38.99375,16.4875 38.6125,15.0875 38.3125,14.1875 37.8125,13.1875 37.3,12.4875 36.5,11.6875 36,11.0875 35.3,10.59125 34.5,10.28125 33.2,9.75125 31.6875,9.58375 30.1875,9.59375 28.8875,9.61375 28.4125,9.66625 27.3125,9.90625 26.5125,10.07625 25.8875,10.245 25.6875,10.375 25.5875,10.435 25.6,10.44375 26,10.34375 26.4,10.26375 26.99375,10.14125 27.59375,10.03125 28.49375,9.88125 30.19375,9.7725 31.09375,9.8125 32.29375,9.8525 33.4,10.02125 34,10.28125 34.7,10.55125 35.40625,10.8825 35.90625,11.3125 36.90625,12.2125 37.6,13.00625 38,13.90625 38.3,14.40625 38.49375,15.1 38.59375,16 38.69375,16.9 38.6875,17.0875 38.6875,17.6875 38.6875,18.4875 38.3875,19.2875 38.1875,20.1875 37.8875,20.7875 37.79375,21.4875 37.59375,22.1875 37.39375,22.9875 37.40625,23.20625 37.40625,23.90625 37.40625,24.60625 37.4875,25.29375 37.6875,26.09375 L 37.6875,26.40625 C 37.5875,26.30625 37.2,25.6125 37,25.3125 36.6,24.3125 36.29375,23.1 36.59375,22 36.69375,21.6 36.9125,21.2125 37.3125,19.8125 37.6125,18.9125 37.7125,18.7 37.8125,18 37.8125,17.6 37.7875,16.59375 37.6875,16.09375 37.5875,15.29375 37.30625,14.60625 36.90625,13.90625 36.70625,13.60625 36.1125,12.89375 35.8125,12.59375 35.5125,12.29375 35.0875,12.0125 34.6875,11.8125 34.2875,11.6125 34.30625,11.60625 34.40625,11.90625 34.60625,12.10625 34.90625,12.9125 34.90625,13.3125 35.30625,14.9125 35.3875,16 35.1875,17.5 35.1875,18.3 35.0125,19.10625 34.8125,19.90625 34.6125,20.80625 34.4875,21.7 34.1875,22.5 33.8875,23.3 33.6,23.99375 33,24.59375 33,24.59375 32.8125,24.3875 32.8125,24.1875 32.7125,24.0875 32.6875,24.00625 32.6875,23.90625 32.6875,23.90625 32.7125,23.4875 32.8125,23.1875 33.0125,22.3875 33.00625,22.3125 32.90625,21.8125 32.90625,21.4125 32.8875,21.3125 32.6875,20.8125 32.4875,20.2125 32.4125,19.9125 32.3125,19.8125 32.2125,19.8125 32.2125,19.80625 32.3125,19.90625 32.3125,20.00625 32.5,20.39375 32.5,20.59375 32.6,21.09375 32.60625,21.59375 32.40625,22.59375 32.30625,23.79375 32.3,24.0125 32.5,24.3125 32.5,24.4125 32.7125,24.6125 32.8125,24.8125 33.2125,25.3125 33.3875,25.99375 33.1875,26.59375 32.9875,26.99375 32.5875,27.4 32.1875,27.5 L 32,27.59375 C 31.8,27.99375 31.60625,28.5 31.40625,29 31.10625,29.8 30.5875,31.2125 30.6875,31.3125 L 30.6875,31.40625 C 30.7875,31.40625 31.7125,31.4 32.8125,31.5 36.7125,31.5 37.7125,31.4875 39.8125,31.6875 40.6125,31.6875 40.9125,31.8125 40.8125,31.8125 L 40.59375,31.8125 C 39.89375,31.9125 37.8125,32 37.3125,32 36.8125,32 36.2125,31.99375 34.8125,32.09375 L 32.90625,32.09375 C 31.90625,32.19375 30.4125,32.2125 30.3125,32.3125 30.3125,32.3125 30.2875,32.39375 30.1875,32.59375 30.0875,33.09375 30.00625,33.3875 29.90625,33.6875 29.80625,33.8875 29.8,33.9875 29.5,34.1875 28.8,34.8875 27.2125,36.1875 26.3125,36.6875 L 26.09375,36.8125 25.8125,36.8125 C 25.0125,36.8125 22.9125,36.6875 22.8125,36.6875 22.6125,36.7875 22.49375,36.7 22.09375,36.5 21.39375,36.2 20.6875,35.80625 20.1875,35.40625 19.1875,34.60625 18.69375,34.20625 18.59375,33.90625 18.59375,33.80625 18.50625,33.39375 18.40625,33.09375 18.30625,32.69375 18.1875,32.4125 18.1875,32.3125 L 16.09375,32.3125 C 13.79375,32.3125 12.8875,32.3 11.6875,32.5 L 11.1875,32.5 C 11.0875,32.5 10.70625,32.59375 10.40625,32.59375 9.706249999,32.69375 8.2125,32.90625 7.8125,32.90625 7.7125,32.90625 7.7125,33.49375 7.8125,34.09375 8.0125,35.29375 8.3125,36.4 8.8125,37.5 9.3125,38.9 10.1,40.1125 11,41.3125 11.6,42.2125 12.60625,43.3 13.40625,44 14.90625,45.3 16.7875,46.2125 18.6875,46.8125 20.2875,47.3125 21.9875,47.6125 23.6875,47.8125 25.3875,48.1125 27.3,48.1125 29,47.8125 30.8,47.6125 32.49375,47.0125 34.09375,46.3125 35.09375,45.9125 36.3875,45.19375 37.1875,44.59375 38.6875,43.49375 39.8125,42.1 40.8125,40.5 41.8125,39.1 42.1875,37.2875 42.6875,35.6875 42.8875,34.7875 43,33.80625 43,32.90625 43,31.90625 42.9875,31.5 42.6875,30.5 42.6875,30.4 42.69375,30.19375 42.59375,30.09375 42.59375,29.89375 42.5875,29.90625 42.6875,29.90625 L 42.6875,30.09375 C 42.6875,30.19375 42.8125,30.5 43.3125,31.5 43.7125,32.3 43.8125,32.5125 43.8125,32.8125 44.1125,33.6125 44.1875,34.4125 44.1875,35.3125 44.2875,36.3125 43.90625,37.4125 43.40625,38.3125 43.00625,39.2125 42.79375,39.5875 42.09375,40.6875 41.59375,41.4875 40.8125,42.5875 40.3125,43.1875 40.0125,43.4875 39.2125,44.3875 38.8125,44.6875 37.6125,45.6875 36.80625,46.30625 35.40625,46.90625 34.00625,47.60625 33.30625,47.90625 31.40625,48.40625 30.40625,48.70625 29.00625,48.9 27.90625,49 L 24.59375,49 C 23.19375,48.9 21.89375,48.70625 20.59375,48.40625 18.79375,47.90625 17.8875,47.6125 16.1875,46.8125 13.4875,45.5125 11.6,43.99375 10,41.59375 9.6,40.99375 9.49375,40.89375 9.09375,40.09375 8.69375,39.39375 8.5875,39.2875 8.1875,38.1875 7.7875,37.1875 7.4875,36.1 7.1875,35 6.9875,34.2 7.00625,33.39375 6.90625,32.59375 6.90625,32.59375 6.79375,32.6 6.59375,32.5 6.19375,32.4 5.81375,32.2125 5.59375,31.8125 5.84375,31.3125 6.40625,31.1 6.90625,31 7.20625,31 7.1875,30.9 7.1875,30.5 7.1875,29.4 7.0125,28.39375 6.3125,27.59375 5.4525,26.79375 4.09625,27.1 3.40625,28 3.26625,28.1 3.11125,28.4 3.03125,28.5 2.96125,28.5 3.00375,28.09375 3.34375,27.59375 4.71375,25.79375 6.50625,26.29375 7.40625,28.09375 7.70625,28.79375 7.80625,29.40625 7.90625,30.40625 L 7.90625,30.8125 C 8.00625,30.9125 8.1,30.9 8.5,31 10.8,31.4 10.8,31.40625 13.5,31.40625 15.4,31.40625 16.1,31.4125 17.5,31.3125 17.9,31.3125 17.90625,31.2875 17.90625,31.1875 18.00625,31.0875 17.8875,30.79375 17.6875,30.09375 17.4875,28.99375 17.3,28.2875 17,27.6875 16.8,27.4875 16.7875,27.4125 16.6875,27.3125 16.5875,27.2125 16.50625,27.1875 16.40625,27.1875 16.20625,27.0875 15.9125,26.89375 15.8125,26.59375 15.7125,26.49375 15.5875,25.89375 15.6875,25.59375 15.6875,25.39375 15.8,25.1125 16,24.8125 16.2,24.4125 16.3125,24.19375 16.3125,24.09375 16.3125,23.89375 16.29375,23.5125 16.09375,22.8125 15.99375,22.2125 15.90625,21.6 15.90625,21 15.90625,20.8 15.9,20.3875 16,20.1875 16,19.9875 16.00625,19.99375 15.90625,20.09375 15.70625,20.39375 15.59375,20.9 15.59375,21.5 15.59375,21.8 15.70625,21.9875 15.90625,22.6875 16.00625,23.0875 16.00625,23.4875 15.90625,23.6875 15.80625,23.8875 15.6,24.3125 15.5,24.3125 L 15.5,24.1875 C 15.3,23.8875 15.1,23.4875 15,23.1875 15,22.9875 14.7875,22.3 14.6875,21.5 14.5875,20.7 14.3875,19.79375 14.1875,19.09375 13.9875,18.09375 13.7875,16.6 13.6875,16 L 13.6875,14.1875 C 13.6875,13.7875 14.0125,12.69375 14.3125,12.09375 14.5125,11.49375 15.09375,10.4 15.59375,9.75 15.69375,9.63 15.80625,9.465 15.90625,9.375 16.40625,8.665 17.1125,7.8975 18.3125,6.9375 18.8125,6.5275 20.09375,5.53125 20.09375,5.53125 20.09375,5.53125 20.0875,5.53 20.1875,5.5 20.2875,5.37 20.9125,4.9925 21.3125,4.8125 21.4125,4.7625 21.5875,4.685 21.6875,4.625 21.8875,4.565 22.1125,4.445 22.3125,4.375 22.6125,4.245 22.6125,4.275 22.8125,3.875 23.7125,2.805 24.79375,2.20625 26.09375,1.78125 27.19375,1.43925 28.2125,1.257 29.3125,1.25 31.5125,1.26 32.79375,2.2675 35.09375,1.6875 35.39375,1.5605 35.89375,1.28975 36.09375,1.09375 36.19375,1.03075 36.3125,0.991 36.3125,1 z M 29.6875,2.21875 C 28.2875,2.21875 27.4,2.3225 26.5,2.5625 25.9,2.7425 24.4,3.43875 24,3.71875 23.9,3.81875 23.8875,3.81625 24.1875,3.65625 24.7875,3.32625 26.20625,2.805 26.90625,2.625 27.50625,2.455 29,2.33375 30.5,2.34375 30.9,2.35375 31.1875,2.35375 31.1875,2.34375 31.1875,2.33375 31.0125,2.31125 30.8125,2.28125 30.5125,2.24125 30.2875,2.21875 29.6875,2.21875 z M 29.09375,19.53125 C 28.50625,19.55625 27.9125,19.6625 27.3125,19.8125 26.8125,19.9125 26.6,20.2125 26.5,20.8125 26.3,21.5125 26.5125,22.29375 26.8125,23.09375 27.0125,23.49375 27.4,24.30625 27.5,24.40625 27.9,24.80625 28.3125,25 28.8125,25 29.4125,24.9 30.0875,24.9125 30.6875,24.8125 30.9875,24.7125 31.49375,24.1875 31.59375,23.6875 31.59375,23.5875 31.6875,23.50625 31.6875,23.40625 31.6875,23.30625 31.7125,23.00625 31.8125,22.90625 31.9125,22.30625 31.9125,21.9 31.8125,21.5 31.7125,20.7 31.60625,20.3875 31.40625,20.1875 L 31.3125,20.09375 C 31.3125,19.99375 31.0125,19.7875 30.8125,19.6875 30.2625,19.5375 29.68125,19.50625 29.09375,19.53125 z M 19.5625,19.625 C 19.3390625,19.6421875 19.15,19.6625 19,19.6875 18.4,19.7875 18.2,19.9 18,20 17.9,20 17.7,20.2125 17.5,20.3125 17.1,20.5125 16.9125,20.5875 16.8125,20.6875 16.8125,20.7875 16.6875,20.9 16.6875,21 16.5875,21.2 16.59375,21.3125 16.59375,21.8125 16.59375,22.3125 16.8125,22.8125 16.8125,23.3125 16.9125,23.6125 17,23.89375 17,24.09375 17,24.19375 17.09375,24.3125 17.09375,24.3125 17.19375,24.7125 17.60625,24.99375 17.90625,25.09375 18.00625,25.09375 19.19375,25 19.59375,25 20.19375,25 20.3875,24.8875 20.6875,24.6875 21.2875,24.4875 21.60625,24 21.90625,23.5 22.20625,22.8 22.40625,22.2 22.40625,21.5 22.40625,21.1 22.3875,20.8 22.1875,20.5 22.0875,20.3 21.9,20.20625 21.5,19.90625 21.125,19.60625 20.2328125,19.5734375 19.5625,19.625 z M 24.1875,22.09375 24.1875,22.1875 C 23.9875,22.3875 23.8875,22.6125 23.6875,23.3125 23.3875,24.0125 23.4,24.19375 23,25.09375 22.7,25.79375 22.59375,26.00625 22.59375,26.40625 22.59375,26.70625 22.5875,26.6875 22.6875,26.6875 22.7875,26.6875 22.90625,26.7125 22.90625,26.8125 23.00625,26.8125 23.5875,26.9125 23.6875,26.8125 23.8875,26.8125 23.9,26.7875 24,26.6875 L 24.3125,26.40625 C 24.3125,26.30625 24.40625,26.1875 24.40625,26.1875 24.40625,26.1875 24.4875,26.29375 24.6875,26.59375 24.8875,26.79375 25.00625,26.80625 25.40625,26.90625 25.70625,26.90625 25.89375,26.79375 26.09375,26.59375 26.49375,26.29375 26.4875,26.1875 26.1875,25.6875 25.9875,25.3875 26.00625,25.3125 25.90625,24.8125 25.80625,24.5125 25.69375,24.10625 25.59375,23.90625 25.49375,23.40625 25.4125,22.89375 25.3125,22.59375 25.2125,22.29375 25.1,22.1875 25,22.1875 25,22.1875 24.7875,22.39375 24.6875,22.59375 24.6875,22.69375 24.69375,22.6875 24.59375,22.6875 24.59375,22.6875 24.50625,22.60625 24.40625,22.40625 24.40625,22.30625 24.3125,22.1875 24.3125,22.1875 L 24.1875,22.09375 z M 18,27.59375 C 17.9,27.59375 17.8875,27.6875 18.1875,28.1875 18.4875,28.7875 19,29.7125 19,29.8125 19.1,29.8125 19.09375,29.7875 19.09375,29.6875 19.19375,29.5875 19.1875,29.19375 19.1875,29.09375 19.1875,28.89375 19.00625,28.2875 18.90625,28.1875 18.80625,27.9875 18.2,27.59375 18,27.59375 z M 30.1875,27.875 C 30.1125,27.9125 30.00625,27.99375 29.90625,28.09375 L 29.59375,28.1875 29.59375,28.40625 C 29.49375,28.60625 29.49375,28.8875 29.59375,29.1875 29.69375,29.5875 29.7125,29.59375 29.8125,29.59375 L 29.90625,29.59375 C 30.00625,29.39375 29.99375,29.3 30.09375,29 30.39375,28.1 30.4125,27.90625 30.3125,27.90625 30.3125,27.85625 30.2625,27.8375 30.1875,27.875 z M 29.40625,29.59375 C 29.30625,29.59375 29.2875,29.6875 29.1875,29.6875 L 29.1875,30.59375 29.3125,30.59375 C 29.4125,30.59375 29.4,30.4 29.5,30 29.5,29.6 29.50625,29.59375 29.40625,29.59375 z M 28.8125,29.75 C 28.7875,29.7625 28.7375,29.80625 28.6875,29.90625 28.4875,30.20625 28.40625,30.39375 28.40625,30.59375 L 28.40625,30.90625 28.5,30.90625 C 28.6,30.90625 28.6875,30.9125 28.6875,30.8125 28.7875,30.8125 28.90625,30.7125 28.90625,30.3125 29.00625,30.0125 29.00625,29.8125 28.90625,29.8125 28.85625,29.7625 28.8375,29.7375 28.8125,29.75 z M 19.40625,29.8125 C 19.30625,29.9125 19.3,30.19375 19.5,30.59375 19.6,30.79375 19.7125,30.8125 19.8125,30.8125 L 19.8125,30.6875 C 19.8125,30.4875 19.6875,29.90625 19.6875,29.90625 19.5875,29.80625 19.40625,29.8125 19.40625,29.8125 z M 20,29.8125 C 19.9875,29.8375 20,29.9 20,30 20,30.1 20.0875,30.7125 20.1875,30.8125 20.1875,31.0125 20.49375,31.00625 20.59375,30.90625 20.69375,30.80625 20.6,30.1 20.5,30 20.4,29.9 20.19375,29.8125 20.09375,29.8125 20.04375,29.8125 20.0125,29.7875 20,29.8125 z M 20.90625,29.90625 C 20.80625,30.00625 20.80625,30.1875 20.90625,30.6875 20.90625,30.7875 20.9,30.9 21,31 L 21.09375,31.09375 21.3125,31.09375 21.5,31.09375 21.5,30.6875 21.5,30.3125 21.3125,30.1875 C 21.2125,29.9875 21.00625,29.90625 20.90625,29.90625 z M 28,29.90625 C 27.9,30.00625 27.6875,30.4 27.6875,30.5 27.5875,30.7 27.59375,30.99375 27.59375,31.09375 L 27.90625,31.09375 C 27.90625,31.09375 28,31.00625 28,30.90625 L 28.09375,30.90625 28.1875,30.5 C 28.1875,30.2 28.19375,30.10625 28.09375,29.90625 L 28,29.90625 z M 23.0625,29.9375 C 23.0125,29.9375 22.95625,29.95 22.90625,30 22.80625,30.1 22.6875,30.19375 22.6875,30.59375 L 22.59375,30.90625 22.6875,31 C 22.6875,31.1 22.8,31.09375 23,31.09375 L 23.1875,31.09375 23.40625,30.6875 23.40625,30.40625 23.40625,30.3125 C 23.30625,30.2125 23.2875,30.1 23.1875,30 23.1375,29.95 23.1125,29.9375 23.0625,29.9375 z M 21.78125,30 C 21.696875,30.0234375 21.6875,30.125 21.6875,30.5 21.6875,30.9 21.7125,31.0875 21.8125,31.1875 L 22.09375,31.1875 22.3125,31.1875 C 22.4125,31.0875 22.40625,31.1125 22.40625,30.8125 L 22.40625,30.40625 22.3125,30.3125 C 22.2125,30.1125 22.00625,30 21.90625,30 21.85625,30 21.809375,29.9921875 21.78125,30 z M 27.1875,30 C 27.0875,30 27,30.0875 27,30.1875 26.8,30.4875 26.8125,30.60625 26.8125,30.90625 26.7125,31.10625 26.7125,31.0875 26.8125,31.1875 26.9125,31.2875 27.2125,31.4125 27.3125,31.3125 27.3125,31.2125 27.30625,31.0875 27.40625,30.6875 27.40625,30.2875 27.2875,30 27.1875,30 z M 23.96875,30.03125 C 23.93125,30.03125 23.90625,30.04375 23.90625,30.09375 23.80625,30.19375 23.59375,31.0875 23.59375,31.1875 23.59375,31.1875 23.9125,31.2875 24.3125,31.1875 L 24.40625,31.1875 C 24.50625,31.0875 24.40625,30.4125 24.40625,30.3125 24.40625,30.2125 24.29375,30.09375 24.09375,30.09375 24.04375,30.04375 24.00625,30.03125 23.96875,30.03125 z M 26.25,30.0625 C 26.1875,30.05 26.1,30.0875 26,30.1875 26,30.3875 25.8125,30.8 25.8125,31 L 25.8125,31.09375 25.90625,31.09375 26,31.09375 C 26.1,31.19375 26.1125,31.19375 26.3125,31.09375 26.4125,31.09375 26.4,31.1 26.5,31 L 26.5,30.6875 C 26.5,30.3875 26.50625,30.4125 26.40625,30.3125 26.35625,30.1625 26.3125,30.075 26.25,30.0625 z M 25,30.09375 C 25,30.19375 24.8125,30.60625 24.8125,30.90625 24.7125,31.20625 24.79375,31.1875 25.09375,31.1875 25.19375,31.1875 25.4,31.19375 25.5,31.09375 25.6,31.09375 25.6,31.0875 25.5,30.6875 25.5,30.4875 25.4125,30.19375 25.3125,30.09375 L 25.1875,30.09375 25,30.09375 z M 8,31.5 C 8,31.6 7.9,31.8125 8,31.8125 8,31.9125 8.70625,32.00625 8.90625,31.90625 9.00625,31.80625 9.00625,31.7875 8.90625,31.6875 8.80625,31.5875 8.8,31.6 8.5,31.5 L 8,31.5 z M 7,31.59375 C 6.8,31.59375 6.8125,31.6875 6.8125,31.6875 6.8125,31.6875 6.9,31.8125 7,31.8125 7.1,31.8125 7.09375,31.7875 7.09375,31.6875 L 7.09375,31.59375 7,31.59375 z M 26.5,32 C 26.3,32 26.2875,31.9875 26.1875,32.1875 26.1875,32.4875 26.20625,32.6875 26.40625,32.6875 26.40625,32.6875 26.5,32.69375 26.5,32.59375 26.6,32.49375 26.8125,32.19375 26.8125,32.09375 26.8125,32.09375 26.7,32.1 26.5,32 z M 27.0625,32.0625 C 27,32.0875 26.95625,32.1375 26.90625,32.1875 26.90625,32.2875 26.9,32.30625 27,32.40625 L 27.1875,32.40625 C 27.3875,32.30625 27.4125,32.09375 27.3125,32.09375 27.2125,32.04375 27.125,32.0375 27.0625,32.0625 z M 25.78125,32.09375 C 25.696875,32.1125 25.6875,32.2 25.6875,32.5 L 25.6875,32.8125 C 25.7875,32.8125 25.80625,32.6875 25.90625,32.6875 26.00625,32.5875 26.09375,32.1875 26.09375,32.1875 26.09375,32.0875 26.00625,32.09375 25.90625,32.09375 25.85625,32.09375 25.809375,32.0875 25.78125,32.09375 z M 21.6875,32.1875 21.90625,32.40625 22.09375,32.40625 22.09375,32.1875 21.90625,32.1875 21.6875,32.1875 z M 25.09375,32.1875 C 24.69375,32.1875 24.59375,32.20625 24.59375,32.40625 24.59375,32.60625 24.80625,32.9 24.90625,33 24.90625,33.1 24.9,33.09375 25,33.09375 25.1,33.09375 25.0875,33.0125 25.1875,32.8125 25.3875,32.5125 25.50625,32.2875 25.40625,32.1875 L 25.09375,32.1875 z M 22.625,32.25 C 22.5125,32.2625 22.40625,32.3125 22.40625,32.3125 22.30625,32.3125 22.49375,32.5875 22.59375,32.6875 22.79375,32.7875 22.80625,32.8125 22.90625,32.8125 L 23,32.8125 C 23,32.7125 23.00625,32.60625 22.90625,32.40625 L 22.90625,32.3125 C 22.85625,32.2625 22.7375,32.2375 22.625,32.25 z M 23.125,32.3125 C 23.0125,32.3265625 23.0875,32.36875 23.3125,32.59375 23.4125,32.79375 23.4,32.7875 23.5,32.6875 23.6,32.6875 23.59375,32.50625 23.59375,32.40625 23.59375,32.30625 23.6125,32.3125 23.3125,32.3125 23.2375,32.3125 23.1625,32.3078125 23.125,32.3125 z M 23.90625,32.3125 23.90625,32.40625 C 23.90625,32.50625 23.99375,32.70625 24.09375,32.90625 24.19375,33.10625 24.30625,33.1 24.40625,33 24.40625,32.8 24.5,32.3125 24.5,32.3125 L 24.1875,32.3125 23.90625,32.3125 z"
     id="logo-cutout" />
</svg>
